<svg width="123" height="123" viewBox="0 0 123 123" fill="none" xmlns="http://www.w3.org/2000/svg">
<path d="M32.8198 51.34L47.8098 51.14L48.9298 51.43C51.9598 53.17 54.8098 55.17 57.4698 57.42C59.3898 59.05 61.2298 60.82 62.9698 62.74C68.3498 54.09 74.0798 46.14 80.1298 38.84C86.7598 30.84 93.7898 23.57 101.18 16.94L102.64 16.38H119L115.7 20.04C105.57 31.3 96.3698 42.94 88.0598 54.94C79.7398 66.97 72.3098 79.37 65.6998 92.13L63.6398 96.1L61.7498 92.06C58.2598 84.58 54.0898 77.71 49.1098 71.57C44.1298 65.43 38.3398 59.98 31.5898 55.35L32.8198 51.34Z" fill="#1E70AC"/>
<path d="M61.44 0C70.97 0 79.99 2.17 88.05 6.04C84.75 8.65 81.69 11.15 78.84 13.57C73.41 11.6 67.56 10.52 61.45 10.52C47.39 10.52 34.66 16.22 25.45 25.44C16.24 34.66 10.53 47.38 10.53 61.44C10.53 75.5 16.23 88.22 25.45 97.44C34.67 106.66 47.39 112.36 61.45 112.36C75.51 112.36 88.24 106.66 97.45 97.44C106.67 88.22 112.36 75.5 112.36 61.44C112.36 58.1 112.04 54.82 111.42 51.66C114.06 48.22 116.77 44.78 119.53 41.38C121.7 47.66 122.88 54.42 122.88 61.44C122.88 78.4 116 93.77 104.89 104.88C93.77 116 78.41 122.88 61.45 122.88C44.49 122.88 29.13 116 18.01 104.88C6.88 93.76 0 78.4 0 61.44C0 44.47 6.88 29.11 17.99 18C29.11 6.88 44.47 0 61.44 0Z" fill="#1E70AC"/>
</svg>
